<svg width="24" height="24" viewBox="0 0 24 24" fill="none" xmlns="http://www.w3.org/2000/svg">
<path d="M13.5986 11.9999C13.5986 12.8951 12.8792 13.5985 12 13.5985C11.1207 13.5985 10.4014 12.8791 10.4014 11.9999C10.4014 11.1207 11.1207 10.4013 12 10.4013C12.8792 10.4013 13.5986 11.1047 13.5986 11.9999Z" fill="#141414"/>
<path d="M13.5986 5.6055C13.5986 6.50072 12.8792 7.2041 12 7.2041C11.1207 7.2041 10.4014 6.48473 10.4014 5.6055C10.4014 4.72627 11.1207 4.0069 12 4.0069C12.8792 4.0069 13.5986 4.71028 13.5986 5.6055Z" fill="#141414"/>
<path d="M13.5986 18.3943C13.5986 19.2895 12.8792 19.9929 12 19.9929C11.1207 19.9929 10.4014 19.2735 10.4014 18.3943C10.4014 17.5151 11.1207 16.7957 12 16.7957C12.8792 16.7957 13.5986 17.4991 13.5986 18.3943Z" fill="#141414"/>
</svg>
