<svg width="56" height="56" viewBox="0 0 56 56" fill="none" xmlns="http://www.w3.org/2000/svg">
<g clip-path="url(#clip0_1503_10394)">
<rect width="56" height="56" rx="28" fill="#F9F7F7"/>
<path fill-rule="evenodd" clip-rule="evenodd" d="M28.4935 22.4912C25.9885 20.2146 22.3602 19.752 19.4531 20.6351C14.701 22.0786 12.3604 28.2259 14.2253 34.3653C16.0903 40.5047 21.4545 44.3115 26.2067 42.8679C27.0714 42.7222 27.8306 42.4955 28.4938 42.1983C29.1569 42.4954 29.9161 42.7221 30.7805 42.8678C35.5327 44.3113 40.897 40.5046 42.7619 34.3651C44.6269 28.2257 42.2863 22.0785 37.5341 20.6349C34.627 19.7518 30.9986 20.2145 28.4935 22.4912Z" fill="#FF8585"/>
<path d="M17.4893 27.102C17.8233 25.1276 19.0961 23.803 20.4167 23.3511" stroke="white" stroke-width="1.6" stroke-linecap="round"/>
<path d="M27.9642 13.147C26.5949 14.6157 26.3202 17.3808 26.5573 18.8244C30.2159 19.4914 31.8636 18.2225 32.8433 16.689C33.946 14.9628 33.7298 12.9805 33.129 11.3296C31.5683 11.3411 29.4845 11.5163 27.9642 13.147Z" fill="#424744"/>
<path d="M28.3338 22.9912C28.8275 20.8824 26.7738 16.2378 21.7959 15.7661" stroke="#424744" stroke-width="2" stroke-linecap="round"/>
</g>
<defs>
<clipPath id="clip0_1503_10394">
<rect width="56" height="56" rx="28" fill="white"/>
</clipPath>
</defs>
</svg>
