<svg width="56" height="56" viewBox="0 0 56 56" fill="none" xmlns="http://www.w3.org/2000/svg">
<g clip-path="url(#clip0_1503_10391)">
<rect width="56" height="56" rx="28" fill="#F9F7F7"/>
<path fill-rule="evenodd" clip-rule="evenodd" d="M33.7581 32.1979C33.2156 32.8134 33.2748 33.7521 33.8903 34.2946L39.6609 39.3808C39.2118 40.1127 39.3399 41.0832 40.0062 41.6704C40.7518 42.3276 41.889 42.2559 42.5462 41.5103C43.1 40.8819 43.1362 39.9755 42.6876 39.3126C42.7454 39.2347 42.7945 39.1527 42.8351 39.0678C43.5371 39.3938 44.3975 39.2365 44.9354 38.6262C45.5903 37.8832 45.5188 36.7499 44.7758 36.0949C44.0327 35.44 42.8994 35.5114 42.2445 36.2545C42.0949 36.4242 41.9832 36.6142 41.9088 36.8142L36.1461 31.7351C35.5306 31.1926 34.5919 31.2518 34.0495 31.8673L33.7581 32.1979Z" fill="#424744"/>
<path d="M12.7601 29.4345L12.2642 29.9972L12.8268 30.4931L20.3464 37.1207C25.2187 41.415 32.6496 40.9465 36.9439 36.0743L37.4798 35.4663C41.7741 30.5941 41.3056 23.1632 36.4333 18.8688L28.9137 12.2412L28.3511 11.7453L27.8552 12.3079L12.7601 29.4345Z" fill="#FFA553" stroke="#F9F7F7" stroke-width="1.5"/>
<ellipse cx="20.8426" cy="21.3481" rx="5.72969" ry="11.4098" transform="rotate(-138.608 20.8426 21.3481)" fill="white"/>
<path d="M22.6428 19.2223C22.6428 19.2223 22.5026 20.6314 21.5648 21.6955C20.627 22.7595 19.2466 23.0755 19.2466 23.0755" stroke="#424744" stroke-width="2" stroke-linecap="round"/>
</g>
<defs>
<clipPath id="clip0_1503_10391">
<rect width="56" height="56" rx="28" fill="white"/>
</clipPath>
</defs>
</svg>
