<svg width="56" height="56" viewBox="0 0 56 56" fill="none" xmlns="http://www.w3.org/2000/svg">
<g clip-path="url(#clip0_1503_10395)">
<rect width="56" height="56" rx="28" fill="#F9F7F7"/>
<path d="M33.132 38.8537C34.0619 37.3723 34.1735 35.608 33.9298 34.9557C32.5615 35.3815 29.4107 37.1784 29.901 37.5608C30.3914 37.9433 30.1751 40.5886 30.0057 41.8635C30.7489 41.4997 32.3763 40.0575 33.132 38.8537Z" fill="#8C6DEF"/>
<path d="M20.912 18.592C24.0059 18.2395 26.924 19.4187 27.7835 20.312C26.0466 22.1809 20.7365 25.8558 20.5001 24.7742C20.2637 23.6926 17.4921 21.541 13.6737 21.2938C14.8299 20.3807 18.3979 18.8784 20.912 18.592Z" fill="#8C6DEF"/>
<path fill-rule="evenodd" clip-rule="evenodd" d="M5.66809 29.0154C8.97624 27.4633 13.3116 27.5076 15.8943 30.0974C17.8325 22.5242 29.4401 13.0714 45.7587 18.1113C43.2969 29.6819 33.4371 40.6826 20.5339 37.9375C20.2963 37.8869 20.0678 37.829 19.8482 37.764C20.0022 40.4408 18.8469 43.7929 15.2914 46.2736C12.8094 43.3185 11.7094 38.8465 13.8 35.5641C10.9958 35.4953 7.35785 33.6553 5.66809 29.0154Z" fill="#8C6DEF"/>
<ellipse cx="39.5075" cy="20.972" rx="1.63881" ry="1.63946" fill="#424744"/>
<path d="M31.9291 20.0002C31.5707 22.4117 32.2608 27.4146 37.8883 28.1343" stroke="#424744" stroke-width="2" stroke-linecap="round"/>
</g>
<defs>
<clipPath id="clip0_1503_10395">
<rect width="56" height="56" rx="28" fill="white"/>
</clipPath>
</defs>
</svg>
