<svg width="56" height="56" viewBox="0 0 56 56" fill="none" xmlns="http://www.w3.org/2000/svg">
<g clip-path="url(#clip0_1503_10392)">
<rect width="56" height="56" rx="28" fill="#F9F7F7"/>
<path d="M14.0888 37.5212C14.0138 41.0544 11.598 44.2703 10.2137 45.4859C10.0333 45.6443 10.1297 45.9132 10.3685 45.8885C16.1712 45.2878 24.165 44.2183 25.4726 42.3314C26.738 40.5055 28.6757 37.5212 30.9822 37.5212C33.2887 37.5212 36.4695 35.8789 36.4695 32.9897C36.4695 30.1005 37.3241 28.1358 38.708 27.2113C40.0919 26.2868 42.3335 24.7889 42.3335 21.361V10.679C42.3335 10.4638 42.047 10.3666 41.9033 10.5269C40.6718 11.9013 38.4487 13.4739 36.4695 13.8734C33.8756 14.3969 32.1693 14.3095 29.8237 18.8147C27.4781 23.3199 23.9597 21.3611 21.5164 23.8096C19.0731 26.258 21.321 29.9797 19.0731 31.3509C16.8252 32.7221 14.1865 32.9179 14.0888 37.5212Z" fill="#37D16D"/>
<path d="M24.7057 31.1118C23.7542 28.5025 25.9424 24.3436 30.5641 25.426" stroke="#424744" stroke-width="2" stroke-linecap="round"/>
<path d="M17.4314 40.041C16.9959 38.1481 18.8729 35.4502 21.9872 36.5997" stroke="#424744" stroke-width="2" stroke-linecap="round"/>
<path d="M34.762 21.6479C33.7187 20.0095 34.586 16.8393 37.9054 16.8817" stroke="#424744" stroke-width="2" stroke-linecap="round"/>
</g>
<defs>
<clipPath id="clip0_1503_10392">
<rect width="56" height="56" rx="28" fill="white"/>
</clipPath>
</defs>
</svg>
