<svg width="24" height="24" viewBox="0 0 24 24" fill="none" xmlns="http://www.w3.org/2000/svg">
<path d="M19.96 8.95999C19.29 8.21999 18.28 7.78999 16.88 7.63999V6.87999C16.88 5.50999 16.3 4.18999 15.28 3.26999C14.25 2.32999 12.91 1.88999 11.52 2.01999C9.12999 2.24999 7.11999 4.55999 7.11999 7.05999V7.63999C5.71999 7.78999 4.70999 8.21999 4.03999 8.95999C3.06999 10.04 3.09999 11.48 3.20999 12.48L3.90999 18.05C4.11999 20 4.90999 22 9.20999 22H14.79C19.09 22 19.88 20 20.09 18.06L20.79 12.47C20.9 11.48 20.93 10.04 19.96 8.95999ZM11.66 3.40999C12.66 3.31999 13.61 3.62999 14.35 4.29999C15.08 4.95999 15.49 5.89999 15.49 6.87999V7.57999H8.50999V7.05999C8.50999 5.27999 9.97999 3.56999 11.66 3.40999ZM12 18.58C9.90999 18.58 8.20999 16.88 8.20999 14.79C8.20999 12.7 9.90999 11 12 11C14.09 11 15.79 12.7 15.79 14.79C15.79 16.88 14.09 18.58 12 18.58Z" fill="#141414"/>
<path d="M10.9999 16.58C10.7499 16.58 10.4999 16.45 10.3599 16.22C10.1499 15.87 10.2599 15.4 10.6199 15.19L11.5099 14.66V13.58C11.5099 13.17 11.8499 12.83 12.2599 12.83C12.6699 12.83 12.9999 13.16 12.9999 13.58V15.08C12.9999 15.34 12.8599 15.59 12.6399 15.72L11.3899 16.47C11.2699 16.54 11.1299 16.58 10.9999 16.58Z" fill="#141414"/>
</svg>
