<svg width="24" height="24" viewBox="0 0 24 24" fill="none" xmlns="http://www.w3.org/2000/svg">
<path d="M18.4999 4.11001L13.5099 2.24001C12.6799 1.93001 11.3199 1.93001 10.4899 2.24001L5.49991 4.11001C4.34991 4.54001 3.40991 5.90001 3.40991 7.12001V14.55C3.40991 15.73 4.18991 17.28 5.13991 17.99L9.43991 21.2C10.8499 22.26 13.1699 22.26 14.5799 21.2L18.8799 17.99C19.8299 17.28 20.6099 15.73 20.6099 14.55V7.12001C20.5899 5.90001 19.6499 4.54001 18.4999 4.11001ZM11.9299 7.03001C13.1099 7.03001 14.0699 7.99001 14.0699 9.17001C14.0699 10.33 13.1599 11.26 12.0099 11.3H11.9899H11.9699C11.9499 11.3 11.9299 11.3 11.9099 11.3C10.7099 11.26 9.80991 10.33 9.80991 9.17001C9.79991 7.99001 10.7599 7.03001 11.9299 7.03001ZM14.1899 16.36C13.5799 16.76 12.7899 16.97 11.9999 16.97C11.2099 16.97 10.4099 16.77 9.80991 16.36C9.23991 15.98 8.92991 15.46 8.91991 14.89C8.91991 14.33 9.23991 13.79 9.80991 13.41C11.0199 12.61 12.9899 12.61 14.1999 13.41C14.7699 13.79 15.0899 14.31 15.0899 14.88C15.0799 15.44 14.7599 15.98 14.1899 16.36Z" fill="#141414"/>
</svg>
