<svg width="24" height="24" viewBox="0 0 24 24" fill="none" xmlns="http://www.w3.org/2000/svg">
<path fill-rule="evenodd" clip-rule="evenodd" d="M9.48359 3.92094C9.51762 3.81886 9.61315 3.75 9.72076 3.75H14.2792C14.3868 3.75 14.4824 3.81886 14.5164 3.92094L14.9594 5.25H9.04057L9.48359 3.92094ZM15.9394 3.4466L16.5406 5.25H19H21C21.4142 5.25 21.75 5.58579 21.75 6C21.75 6.41421 21.4142 6.75 21 6.75H19.7017L18.935 18.2494C18.8037 20.2193 17.1676 21.75 15.1933 21.75H8.80666C6.83242 21.75 5.19629 20.2193 5.06497 18.2494L4.29834 6.75H3C2.58579 6.75 2.25 6.41421 2.25 6C2.25 5.58579 2.58579 5.25 3 5.25H5H7.45943L8.06056 3.4466C8.29876 2.732 8.96751 2.25 9.72076 2.25H14.2792C15.0325 2.25 15.7012 2.732 15.9394 3.4466ZM10.75 10C10.75 9.58579 10.4142 9.25 10 9.25C9.58579 9.25 9.25 9.58579 9.25 10V17C9.25 17.4142 9.58579 17.75 10 17.75C10.4142 17.75 10.75 17.4142 10.75 17V10ZM14 9.25C14.4142 9.25 14.75 9.58579 14.75 10V14C14.75 14.4142 14.4142 14.75 14 14.75C13.5858 14.75 13.25 14.4142 13.25 14V10C13.25 9.58579 13.5858 9.25 14 9.25Z" fill="#141414"/>
</svg>
