<svg width="24" height="24" viewBox="0 0 24 24" fill="none" xmlns="http://www.w3.org/2000/svg">
<path d="M20.1201 3.88L3.39007 20.61C3.34007 20.41 3.32007 20.19 3.32007 19.95V5.86C3.32007 3.74 5.05007 2 7.18007 2H16.8201C18.2201 2 19.4501 2.75 20.1201 3.88Z" fill="#141414"/>
<path d="M21.7699 2.23C21.4699 1.93 20.9799 1.93 20.6799 2.23L2.22988 20.69C1.92988 20.99 1.92988 21.48 2.22988 21.78C2.37988 21.92 2.56988 22 2.76988 22C2.96988 22 3.15988 21.92 3.30988 21.77L21.7699 3.31C22.0799 3.01 22.0799 2.53 21.7699 2.23Z" fill="#141414"/>
<path d="M19.2899 7.70999L11.8999 15.1C11.4399 15.56 11.5299 16.33 12.0899 16.66L19.4799 21.09C20.1499 21.49 20.9899 21.01 20.9899 20.23V8.40999C20.9999 7.51999 19.9199 7.07999 19.2899 7.70999Z" fill="#141414"/>
</svg>
